Coordinates
version=1
nRows=12
nColumns=19
inDegrees=yes

Units are S.I. units (second, meters, Newtons, ...)
If the header above contains a line with 'inDegrees', this indicates whether rotational values are in degrees (yes) or radians (no).

endheader
time	pelvis_tilt	pelvis_list	pelvis_rotation	pelvis_tx	pelvis_ty	pelvis_tz	hip_flexion_r	hip_adduction_r	hip_rotation_r	knee_angle_r	knee_angle_r_beta	ankle_angle_r	hip_flexion_l	hip_adduction_l	hip_rotation_l	knee_angle_l	knee_angle_l_beta	ankle_angle_l
     16.78666667	     -3.57435175	      2.79901809	     -3.35523115	      2.18313242	      0.97823528	      1.05490910	     -8.36315205	    -10.32946062	    -23.07014021	     42.32983795	      0.73879504	    -16.99962116	     16.29906441	      5.52642506	     -6.70920975	      4.54583283	      0.07933975	      7.03229274
     16.79333333	     -2.88150971	      3.35087168	     -2.96876520	      2.18360869	      0.97528696	      1.05366327	     -8.43647294	    -11.62887980	    -23.71180211	     44.74725910	      0.78098700	    -15.74397450	     15.63972958	      6.30811959	     -6.99671438	      6.03081537	      0.10525758	      6.50799020
     16.80000000	     -2.27685983	      3.93231014	     -2.62287046	      2.18378515	      0.97199157	      1.05242334	     -8.27823071	    -12.95072844	    -24.11507296	     47.26335655	      0.82490119	    -14.47496948	     15.27637723	      7.03779411	     -7.43323697	      8.09867267	      0.14134850	      6.21989463
     16.80666667	     -2.27120181	      4.30189242	     -2.21242216	      2.18350309	      0.96790186	      1.05112029	     -7.29154100	    -13.92383619	    -24.11376417	     49.88635381	      0.87068113	    -13.04757774	     15.87184131	      7.42387106	     -7.97988365	     10.96388624	      0.19135591	      6.24287316
     16.81333333	     -2.18945188	      4.65623166	     -1.79901557	      2.18306761	      0.96376086	      1.04989696	     -6.29022067	    -14.79161720	    -23.85860062	     52.47069521	      0.91578639	    -11.52793820	     16.37917826	      7.77387882	     -8.33817462	     13.93008398	      0.24312583	      6.45547551
     16.82000000	     -1.92870500	      4.89638932	     -1.45504275	      2.18230804	      0.95973987	      1.04884140	     -5.33370166	    -15.46297983	    -23.31411601	     55.01650943	      0.96021923	    -10.06997539	     16.73999579	      7.94583290	     -8.73225527	     17.06429918	      0.29782821	      6.96774868
     16.82666667	     -1.72812956	      5.05825805	     -1.13193637	      2.18130308	      0.95568044	      1.04791372	     -4.17044459	    -15.95406382	    -22.53276368	     57.52595396	      1.00401730	     -8.64694847	     17.13229130	      8.01172567	     -8.99544262	     20.18763143	      0.35234064	      7.77079884
     16.83333333	     -1.47312607	      5.17421329	     -0.85995338	      2.18006755	      0.95185494	      1.04713537	     -2.92922555	    -16.31110340	    -21.55865060	     59.95657165	      1.04643958	     -7.33394718	     17.36921564	      8.01695870	     -9.18440170	     23.14524643	      0.40396076	      8.78097948
     16.84000000	     -1.33585319	      5.18400658	     -0.61216178	      2.17858808	      0.94810455	      1.04646490	     -1.40927992	    -16.43060070	    -20.34993998	     62.32534686	      1.08778251	     -6.05887349	     17.63439684	      7.91287320	     -9.24339906	     25.93638812	      0.45267537	     10.06469822
     16.84666667	     -1.00786279	      5.17706953	     -0.39151605	      2.17691233	      0.94490116	      1.04595971	     -0.01536324	    -16.42975498	    -19.06598868	     64.52786687	      1.12622374	     -4.86819804	     17.52324772	      7.81495044	     -9.19370009	     28.39768583	      0.49563312	     11.51124496
     16.85333333	     -0.39242476	      5.18956262	     -0.16475737	      2.17524286	      0.94247180	      1.04547022	      1.05544066	    -16.39991911	    -17.87042027	     66.48310493	      1.16034908	     -3.75798759	     16.83795401	      7.80704769	     -8.95273573	     30.35866967	      0.52985874	     13.09512154
     16.86000000	     -0.51927602	      4.99770601	     -0.07381231	      2.17319739	      0.93970475	      1.04520122	      3.19251082	    -15.96672026	    -16.23807742	     68.41411839	      1.19405162	     -2.74284236	     16.88736152	      7.51577434	     -8.84676302	     32.19492915	      0.56190752	     14.72660246
